{"accessors" : [{"bufferView" : 0, "byteOffset" : 0, "componentType" : 5123, "count" : 408, "type" : "SCALAR", "max" : [407], "min" : [0]}, {"bufferView" : 1, "byteOffset" : 0, "componentType" : 5126, "count" : 408, "type" : "VEC3", "max" : [0.7427769303321838, 0.8404292464256287, 0.6452086567878723], "min" : [-0.7346509695053101, -0.7380943894386292, -0.4200132489204407], "name" : "POSITION"}, {"bufferView" : 1, "byteOffset" : 12, "componentType" : 5126, "count" : 408, "type" : "VEC3", "max" : [1.0000044107437134, 0.9239478707313538, 0.9998817443847656], "min" : [-0.9917922616004944, -0.9645230174064636, -0.9997442364692688], "name" : "NORMAL"}, {"bufferView" : 0, "byteOffset" : 816, "componentType" : 5123, "count" : 450, "type" : "SCALAR", "max" : [449], "min" : [0]}, {"bufferView" : 2, "byteOffset" : 0, "componentType" : 5126, "count" : 450, "type" : "VEC3", "max" : [0.5688492655754089, 0.6557154655456543, 0.6133871078491211], "min" : [-0.6064426302909851, -0.5040446519851685, 0.4091149568557739], "name" : "POSITION"}, {"bufferView" : 2, "byteOffset" : 12, "componentType" : 5126, "count" : 450, "type" : "VEC3", "max" : [0.9842936396598816, 0.9682468175888062, 0.9897904992103577], "min" : [-0.9978331327438354, -0.9904657602310181, -0.6245362758636475], "name" : "NORMAL"}, {"bufferView" : 0, "byteOffset" : 1716, "componentType" : 5123, "count" : 432, "type" : "SCALAR", "max" : [431], "min" : [0]}, {"bufferView" : 3, "byteOffset" : 0, "componentType" : 5126, "count" : 432, "type" : "VEC3", "max" : [0.6261195540428162, 0.6786251068115234, 0.21706631779670715], "min" : [-0.6104715466499329, -0.6476613283157349, 0.006647631525993347], "name" : "POSITION"}, {"bufferView" : 3, "byteOffset" : 12, "componentType" : 5126, "count" : 432, "type" : "VEC3", "max" : [0.959943413734436, 0.9479488134384155, 0.9979129433631897], "min" : [-0.959943413734436, -0.9479487538337708, -0.9979110360145569], "name" : "NORMAL"}, {"bufferView" : 0, "byteOffset" : 2580, "componentType" : 5123, "count" : 384, "type" : "SCALAR", "max" : [383], "min" : [0]}, {"bufferView" : 4, "byteOffset" : 0, "componentType" : 5126, "count" : 384, "type" : "VEC3", "max" : [0.7205573916435242, 0.7282152771949768, 0.16590294241905212], "min" : [-0.7049093842506409, -0.697251558303833, -0.17046581208705902], "name" : "POSITION"}, {"bufferView" : 4, "byteOffset" : 12, "componentType" : 5126, "count" : 384, "type" : "VEC3", "max" : [0.805251955986023, 0.8052521347999573, 0.9998748898506165], "min" : [-0.805251955986023, -0.8052520155906677, -0.9998748898506165], "name" : "NORMAL"}, {"bufferView" : 0, "byteOffset" : 3348, "componentType" : 5123, "count" : 420, "type" : "SCALAR", "max" : [419], "min" : [0]}, {"bufferView" : 5, "byteOffset" : 0, "componentType" : 5126, "count" : 420, "type" : "VEC3", "max" : [0.7926064133644104, 0.6825369596481323, 0.3190136253833771], "min" : [-0.7468332648277283, -0.7842609882354736, 0.0828661173582077], "name" : "POSITION"}, {"bufferView" : 5, "byteOffset" : 12, "componentType" : 5126, "count" : 420, "type" : "VEC3", "max" : [0.9445664286613464, 0.9626959562301636, 0.9996414184570312], "min" : [-0.9445663690567017, -0.9626960754394531, -0.9996414184570312], "name" : "NORMAL"}, {"bufferView" : 0, "byteOffset" : 4188, "componentType" : 5123, "count" : 447, "type" : "SCALAR", "max" : [446], "min" : [0]}, {"bufferView" : 6, "byteOffset" : 0, "componentType" : 5126, "count" : 447, "type" : "VEC3", "max" : [0.8057078719139099, 0.793386697769165, 0.3373895287513733], "min" : [-0.8462281227111816, -0.8596383333206177, 0.1194794625043869], "name" : "POSITION"}, {"bufferView" : 6, "byteOffset" : 12, "componentType" : 5126, "count" : 447, "type" : "VEC3", "max" : [0.994882345199585, 0.9888595938682556, 0.999654233455658], "min" : [-0.9867435693740845, -0.9995396137237549, -0.5650296807289124], "name" : "NORMAL"}], "asset" : {"generator" : "Aspose.3D 22.3", "version" : "2.0"}, "buffers" : [{"uri" : "data:application/octet-stream;base64,", "byteLength" : 66096}], "bufferViews" : [{"buffer" : 0, "byteOffset" : 0, "byteLength" : 5084, "target" : 34963}, {"buffer" : 0, "byteOffset" : 5088, "byteLength" : 9792, "byteStride" : 24, "target" : 34962}, {"buffer" : 0, "byteOffset" : 14884, "byteLength" : 10800, "byteStride" : 24, "target" : 34962}, {"buffer" : 0, "byteOffset" : 25688, "byteLength" : 10368, "byteStride" : 24, "target" : 34962}, {"buffer" : 0, "byteOffset" : 36060, "byteLength" : 9216, "byteStride" : 24, "target" : 34962}, {"buffer" : 0, "byteOffset" : 45280, "byteLength" : 10080, "byteStride" : 24, "target" : 34962}, {"buffer" : 0, "byteOffset" : 55364, "byteLength" : 10728, "byteStride" : 24, "target" : 34962}], "materials" : [{"name" : "LightYellow", "pbrMetallicRoughness" : {"baseColorFactor" : [0.4575255215167999, 0.32352927327156067, 0.1709245890378952, 1], "metallicFactor" : 0, "roughnessFactor" : 0}, "emissiveFactor" : [0.4575255215167999, 0.32352927327156067, 0.1709245890378952], "alphaMode" : "OPAQUE", "doubleSided" : false}, {"name" : "White", "pbrMetallicRoughness" : {"baseColorFactor" : [0.4575227200984955, 0.4575227200984955, 0.4575227200984955, 1], "metallicFactor" : 0, "roughnessFactor" : 0}, "emissiveFactor" : [0.4575227200984955, 0.4575227200984955, 0.4575227200984955], "alphaMode" : "OPAQUE", "doubleSided" : false}, {"name" : "Cheese", "pbrMetallicRoughness" : {"baseColorFactor" : [0.5277149677276611, 0.5179892182350159, 0.05597277730703354, 1], "metallicFactor" : 0, "roughnessFactor" : 0}, "emissiveFactor" : [0.5277149677276611, 0.5179892182350159, 0.05597277730703354], "alphaMode" : "OPAQUE", "doubleSided" : false}, {"name" : "Brown", "pbrMetallicRoughness" : {"baseColorFactor" : [0.16263727843761444, 0.10511866211891174, 0.04624766856431961, 1], "metallicFactor" : 0, "roughnessFactor" : 0}, "emissiveFactor" : [0.16263727843761444, 0.10511866211891174, 0.04624766856431961], "alphaMode" : "OPAQUE", "doubleSided" : false}, {"name" : "Red", "pbrMetallicRoughness" : {"baseColorFactor" : [0.4575255215167999, 0.08468689769506454, 0.05452617257833481, 1], "metallicFactor" : 0, "roughnessFactor" : 0}, "emissiveFactor" : [0.4575255215167999, 0.08468689769506454, 0.05452617257833481], "alphaMode" : "OPAQUE", "doubleSided" : false}, {"name" : "LightGreen", "pbrMetallicRoughness" : {"baseColorFactor" : [0.13563336431980133, 0.3564002215862274, 0.06847818195819855, 1], "metallicFactor" : 0, "roughnessFactor" : 0}, "emissiveFactor" : [0.13563336431980133, 0.3564002215862274, 0.06847818195819855], "alphaMode" : "OPAQUE", "doubleSided" : false}], "meshes" : [{"primitives" : [{"attributes" : {"POSITION" : 1, "NORMAL" : 2}, "indices" : 0, "material" : 0, "mode" : 4}, {"attributes" : {"POSITION" : 4, "NORMAL" : 5}, "indices" : 3, "material" : 1, "mode" : 4}, {"attributes" : {"POSITION" : 7, "NORMAL" : 8}, "indices" : 6, "material" : 2, "mode" : 4}, {"attributes" : {"POSITION" : 10, "NORMAL" : 11}, "indices" : 9, "material" : 3, "mode" : 4}, {"attributes" : {"POSITION" : 13, "NORMAL" : 14}, "indices" : 12, "material" : 4, "mode" : 4}, {"attributes" : {"POSITION" : 16, "NORMAL" : 17}, "indices" : 15, "material" : 5, "mode" : 4}], "name" : "Icosphere"}], "nodes" : [{"matrix" : [100, 0, 0, 0, 0, -1.6292067961387602E-05, -99.99999999999868, 0, 0, 99.99999999999868, -1.6292067961387602E-05, 0, 0, 0, 0, 1], "mesh" : 0, "name" : "Burger"}], "scene" : 0, "scenes" : [{"nodes" : [0]}]}